<svg xmlns="http://www.w3.org/2000/svg" width="15.36" height="10.943" viewBox="0 0 15.36 10.943">
  <g id="acak_music" data-name="acak music" transform="translate(-8 -11)">
    <path id="Combined_Shape" data-name="Combined Shape" d="M12.51,9.288c-.468,0-.936,0-1.4,0H10.055a1.032,1.032,0,0,1-.742-.344C8.785,8.4,8.249,7.861,7.727,7.312A.8.8,0,0,1,8.906,6.226c.368.377.729.762,1.1,1.14a1.026,1.026,0,0,0,.746.314h.686q.539,0,1.079,0c-.006-.539,0-1.078,0-1.618Q13.945,7.272,15.36,8.5q-1.416,1.227-2.844,2.44C12.5,10.391,12.517,9.84,12.51,9.288ZM.034,8.512a.828.828,0,0,1,.8-.83c.416,0,.832,0,1.248,0,.453,0,.905,0,1.358,0a1.093,1.093,0,0,0,.8-.42Q6.772,4.612,9.315,1.969a1.057,1.057,0,0,1,.746-.342c.34,0,.68,0,1.022,0,.477,0,.954,0,1.431,0,0-.542-.005-1.083,0-1.625q1.42,1.215,2.835,2.436c-.929.835-1.9,1.634-2.839,2.455,0-.55,0-1.1,0-1.648h-.635c-.387,0-.775,0-1.162,0a1.06,1.06,0,0,0-.752.352Q7.386,6.282,4.8,8.964a1.025,1.025,0,0,1-.735.325c-.481,0-.963,0-1.444,0-.613,0-1.225,0-1.837.005A.8.8,0,0,1,.034,8.512ZM5.313,4.619c-.336-.357-.657-.729-1-1.082a1.036,1.036,0,0,0-.751-.293q-.607,0-1.213,0c-.478,0-.957,0-1.434,0a.906.906,0,0,1-.855-.526A.811.811,0,0,1,.644,1.624c.7-.006,1.4,0,2.094,0q.729,0,1.458,0a1.057,1.057,0,0,1,.823.329c.491.506.978,1.018,1.468,1.527a.857.857,0,0,1,.24.787.8.8,0,0,1-.768.621H5.93A.976.976,0,0,1,5.313,4.619Z" transform="translate(8 11)" fill="#fff"/>
  </g>
</svg>
