<svg xmlns="http://www.w3.org/2000/svg" width="13.732" height="16" viewBox="0 0 13.732 16">
  <g id="local_tracks" data-name="local tracks" transform="translate(-0.125)">
    <path id="Rectangle_222" data-name="Rectangle 222" d="M12.023,16H1.727a1.715,1.715,0,0,1,0-3.429h10.3a1.715,1.715,0,0,1,0,3.429ZM10.3,13.714v1.143h1.143V13.714ZM.018,12.571H0L1.16,2.286A2.289,2.289,0,0,1,3.446,0H10.3a2.289,2.289,0,0,1,2.286,2.286L13.7,12.32a1.154,1.154,0,0,0-1.118-.892H1.164A1.145,1.145,0,0,0,.018,12.57Z" transform="translate(0.125)" fill="#7a7a7a"/>
  </g>
</svg>
