<svg xmlns="http://www.w3.org/2000/svg" width="15.954" height="15.956" viewBox="0 0 15.954 15.956">
  <path id="preferences" d="M3.04,15.956a3.041,3.041,0,0,1-2.15-5.19L4.749,6.907A5.347,5.347,0,0,1,5.906,1.451,5.066,5.066,0,0,1,9.524,0a6.226,6.226,0,0,1,3.153.884L9.315,4.245l.412,1.983,1.983.412L15.07,3.279a6.2,6.2,0,0,1,.869,3.577A4.971,4.971,0,0,1,14.5,10.049,5.056,5.056,0,0,1,10.889,11.5a6.035,6.035,0,0,1-1.84-.293L5.189,15.065A3.017,3.017,0,0,1,3.04,15.956ZM9.524,1.391A3.678,3.678,0,0,0,6.89,2.435a3.963,3.963,0,0,0-.815,4.048l.258.807L1.874,11.75a1.649,1.649,0,0,0,2.332,2.332L8.664,9.622l.808.259a4.662,4.662,0,0,0,1.416.226,3.679,3.679,0,0,0,2.632-1.041,3.806,3.806,0,0,0,1-3.264L12.162,8.155,8.551,7.4,7.8,3.793l2.356-2.356A4.553,4.553,0,0,0,9.524,1.391Z" transform="translate(-0.001)" fill="#7a7a7a"/>
</svg>
