<svg xmlns="http://www.w3.org/2000/svg" width="13.801" height="11" viewBox="0 0 13.801 11">
  <g id="putar_ulang_music" data-name="putar ulang music" transform="translate(-9 -11)">
    <path id="Combined_Shape" data-name="Combined Shape" d="M0,8.37,3.507,5.739V7.493H11.4c.483,0,.454-.877,1.49-.877a.846.846,0,0,1,.786,1.318A2.63,2.63,0,0,1,11.4,9.247H3.507V11ZM10.294,3.507H2.4c-.483,0-.454.877-1.49.877A.846.846,0,0,1,.127,3.066,2.63,2.63,0,0,1,2.4,1.753h7.891V0L13.8,2.631,10.294,5.26Z" transform="translate(9 11)" fill="#fff"/>
  </g>
</svg>
