<svg id="saved_sations" data-name="saved sations" xmlns="http://www.w3.org/2000/svg" width="16" height="16" viewBox="0 0 16 16">
  <rect id="Rectangle" width="16" height="16" fill="none"/>
  <path id="Path" d="M5.473,4.916l-5.047.56a.482.482,0,0,0-.4.329.475.475,0,0,0,.134.5C1.658,7.677,3.912,9.73,3.912,9.73s-.619,2.987-1.029,4.98a.484.484,0,0,0,.188.485.475.475,0,0,0,.515.027C5.353,14.216,8,12.7,8,12.7l4.411,2.519a.478.478,0,0,0,.705-.512c-.41-1.994-1.026-4.981-1.026-4.981s2.254-2.053,3.754-3.421a.484.484,0,0,0,.134-.5.478.478,0,0,0-.4-.327c-2.019-.226-5.048-.562-5.048-.562L8.436.282A.484.484,0,0,0,8,0a.478.478,0,0,0-.434.282C6.728,2.136,5.473,4.916,5.473,4.916Z" transform="translate(0 0.333)" fill="#7a7a7a"/>
</svg>
