<svg xmlns="http://www.w3.org/2000/svg" width="16" height="16" viewBox="0 0 16 16">
  <path id="settings" d="M8.676,16H7.408a1.035,1.035,0,0,1-1.022-1.046v-.633a.976.976,0,0,0-.98-.946.931.931,0,0,0-.692.308l-.405.4a1.051,1.051,0,0,1-.73.292,1.023,1.023,0,0,1-.73-.292l-.93-.925a1.024,1.024,0,0,1,0-1.449l.392-.388a.94.94,0,0,0,.326-.7.976.976,0,0,0-.951-.975H1.051A1.034,1.034,0,0,1,0,8.631V7.365A1.034,1.034,0,0,1,1.051,6.352h.634a.976.976,0,0,0,.951-.975.94.94,0,0,0-.326-.7l-.392-.391a1.009,1.009,0,0,1-.3-.72,1.02,1.02,0,0,1,.3-.73l.939-.916a1.048,1.048,0,0,1,.73-.292,1.037,1.037,0,0,1,.73.292l.4.4a.928.928,0,0,0,.692.309.977.977,0,0,0,.981-.946V1.046A1.033,1.033,0,0,1,7.411,0H8.68A1.048,1.048,0,0,1,9.7,1.046v.637a.976.976,0,0,0,.98.946.946.946,0,0,0,.709-.321l.391-.391a1.059,1.059,0,0,1,1.46,0l.931.921a1.023,1.023,0,0,1,0,1.454l-.409.4a.912.912,0,0,0-.313.687.976.976,0,0,0,.951.975h.634a.947.947,0,0,1,.682.277A1.014,1.014,0,0,1,16,7.365V8.635a.971.971,0,0,1-.972,1.012h-.635a.976.976,0,0,0-.95.975.915.915,0,0,0,.312.688l.409.4a1.029,1.029,0,0,1,0,1.453l-.93.924a1.059,1.059,0,0,1-1.46,0l-.392-.391a.969.969,0,0,0-1.689.625v.633A1.033,1.033,0,0,1,8.676,16ZM8.042,4.666A3.332,3.332,0,1,0,11.379,8,3.338,3.338,0,0,0,8.042,4.666Z" fill="#7a7a7a"/>
</svg>
