<svg xmlns="http://www.w3.org/2000/svg" width="11.474" height="11" viewBox="0 0 11.474 11">
  <g id="volume" transform="translate(-10 -11)">
    <path id="Shape" d="M6.215,11a.474.474,0,0,1-.338-.139L2.839,7.891H.956A.957.957,0,0,1,0,6.935V4.065a.957.957,0,0,1,.956-.957H2.842L5.873.143a.479.479,0,0,1,.82.33V10.526A.476.476,0,0,1,6.215,11ZM9.793,8.848a.588.588,0,0,1-.585-.583.585.585,0,0,1,.172-.417,3.149,3.149,0,0,0,0-4.457.585.585,0,1,1,.827-.828l0,.005a4.322,4.322,0,0,1-.007,6.107A.582.582,0,0,1,9.793,8.848ZM8.474,7.524a.585.585,0,0,1-.413-1,1.289,1.289,0,0,0,0-1.813A.582.582,0,0,1,7.888,4.3a.588.588,0,0,1,.585-.583.583.583,0,0,1,.415.172,2.46,2.46,0,0,1,0,3.467A.581.581,0,0,1,8.474,7.524Z" transform="translate(10 11)" fill="#fff"/>
  </g>
</svg>
