<svg xmlns="http://www.w3.org/2000/svg" width="29.675" height="24.5" viewBox="0 0 29.675 24.5"><defs><style>.a{fill:#1a1818;}</style></defs><path class="a" d="M11.292,24.5c-4.953,0-8.867-.865-10.74-2.374L.515,22.1l-.033-.033a1.523,1.523,0,0,1-.4-1.6L.1,20.414a1.551,1.551,0,0,1,1.415-.974A12.787,12.787,0,0,0,4.9,18.974a6.418,6.418,0,0,1-3.382-3.908A1.386,1.386,0,0,1,2,13.45a1.414,1.414,0,0,1,.422-.216A9.359,9.359,0,0,1,.5,9.8L.489,9.757.481,9.718A1.443,1.443,0,0,1,1.149,8.17a1.437,1.437,0,0,1,.684-.193,7.236,7.236,0,0,1-.546-1.668A6.978,6.978,0,0,1,2.029,1.66l.184-.368a1.026,1.026,0,0,1,1.644-.267l.335.336a15.823,15.823,0,0,0,9.124,5,7.268,7.268,0,0,1,1.962-4.19A6.885,6.885,0,0,1,20.193,0h.012a9.846,9.846,0,0,1,4.063,1.323c.874-.286,1.928-.729,3.021-1.2A1.38,1.38,0,0,1,28.833.4a1.356,1.356,0,0,1,.294,1.49q-.119.332-.27.651a1.382,1.382,0,0,1,.4.277,1.493,1.493,0,0,1,.371,1.395l-.013.047A5.693,5.693,0,0,1,27.331,7.4C27.153,16.861,20.026,24.5,11.292,24.5ZM2.22,21.157c1.765,1,5.128,1.6,9.071,1.6a13.588,13.588,0,0,0,10.074-4.583A16.42,16.42,0,0,0,25.594,7.034V6.987a1.025,1.025,0,0,1,.547-.907,3.7,3.7,0,0,0,1.6-1.769,1.026,1.026,0,0,1-.989-1.616,5.648,5.648,0,0,0,.388-.614c-.944.4-1.84.752-2.618.988a1.113,1.113,0,0,1-.856-.092,8.479,8.479,0,0,0-3.454-1.235,5.411,5.411,0,0,0-5.2,5.483,1.027,1.027,0,0,1-1.225,1.007C9.051,7.3,6.248,5.9,3.334,2.973a5.138,5.138,0,0,0-.339,3A6.35,6.35,0,0,0,4.5,8.9a1.026,1.026,0,0,1-1.036,1.668,4.7,4.7,0,0,1-.957-.368,8.67,8.67,0,0,0,2.972,3.447,1.026,1.026,0,0,1-.656,1.87,4.614,4.614,0,0,1-1.362-.295A4.68,4.68,0,0,0,7.2,17.869,1.026,1.026,0,0,1,7.5,19.787,12.331,12.331,0,0,1,2.22,21.157Zm0,0" transform="translate(0 0.001)"/></svg>