<svg xmlns="http://www.w3.org/2000/svg" width="15.474" height="27.264" viewBox="0 0 15.474 27.264"><defs><style>.a{fill:#1a1818;}</style></defs><path class="a" d="M10.058,27.264H5.692A1.324,1.324,0,0,1,4.37,25.941V16.094H1.823A1.324,1.324,0,0,1,.5,14.771v-4.22A1.324,1.324,0,0,1,1.823,9.229H4.37V7.116a7.2,7.2,0,0,1,1.9-5.155A6.853,6.853,0,0,1,11.324,0l3.33.005a1.324,1.324,0,0,1,1.32,1.323V5.246a1.324,1.324,0,0,1-1.322,1.323H12.411c-.684,0-.858.137-.9.179-.061.07-.134.267-.134.811V9.228h3.1a1.344,1.344,0,0,1,.654.166,1.327,1.327,0,0,1,.68,1.157l0,4.22a1.324,1.324,0,0,1-1.323,1.322H11.381v9.848A1.324,1.324,0,0,1,10.058,27.264Zm-4.09-1.6H9.783V15.378a.884.884,0,0,1,.883-.883h3.553V10.827H10.665a.884.884,0,0,1-.883-.883V7.559a2.722,2.722,0,0,1,.535-1.868,2.709,2.709,0,0,1,2.093-.72h1.966V1.6l-3.053,0c-3.3,0-5.355,2.114-5.355,5.517V9.944a.884.884,0,0,1-.883.883H2.1v3.668H5.085a.884.884,0,0,1,.883.883ZM14.651,1.6h0Zm0,0" transform="translate(-0.5)"/></svg>