<svg xmlns="http://www.w3.org/2000/svg" width="27.264" height="27.264" viewBox="0 0 27.264 27.264"><defs><style>.a{fill:#1a1818;}</style></defs><path class="a" d="M19.884,0H7.38A7.388,7.388,0,0,0,0,7.38v12.5a7.388,7.388,0,0,0,7.38,7.38h12.5a7.388,7.388,0,0,0,7.38-7.38V7.38A7.388,7.388,0,0,0,19.884,0Zm5.782,19.884a5.788,5.788,0,0,1-5.782,5.782H7.38A5.788,5.788,0,0,1,1.6,19.884V7.38A5.788,5.788,0,0,1,7.38,1.6h12.5A5.788,5.788,0,0,1,25.666,7.38Zm0,0"/><path class="a" d="M123.459,116a7.455,7.455,0,1,0,7.455,7.455A7.463,7.463,0,0,0,123.459,116Zm0,13.311a5.856,5.856,0,1,1,5.856-5.856A5.863,5.863,0,0,1,123.459,129.315Zm0,0" transform="translate(-109.827 -109.827)"/><path class="a" d="M360.179,66.285a2.2,2.2,0,1,0,2.2,2.2A2.205,2.205,0,0,0,360.179,66.285Zm0,2.807a.6.6,0,1,1,.6-.6A.605.605,0,0,1,360.179,69.092Zm0,0" transform="translate(-338.914 -62.755)"/></svg>